<?xml version="1.0" encoding="UTF-8" standalone="no"?>
<svg width="100%" height="100%" viewBox="0 0 567 392" version="1.1" xmlns="http://www.w3.org/2000/svg" style="fill-rule:evenodd;clip-rule:evenodd;stroke-linejoin:round;stroke-miterlimit:2;">
<rect width="567" height="392" fill="white"/>
<g>
<path d="M230.22,259.94 L227.85,262.31 L225.48,262.31 L225.48,264.67 L223.11,267.04 L223.11,269.41 L220.75,271.78 L223.11,269.41 L225.48,269.41 L225.48,267.04 L227.85,264.67 L227.85,262.31 Z" fill="#d8d8d8" fill-rule="evenodd"/>
<path d="M261.00,4.18 L386.51,233.89 L244.43,236.26 L223.11,278.88 L459.92,278.88 L310.73,4.18 Z" fill="#6d238b" fill-rule="evenodd"/>
<path d="M256.27,8.92 L107.08,278.88 L133.13,323.88 L256.27,101.28 L327.31,226.79 L377.04,231.52 Z" fill="#25a83d" fill-rule="evenodd"/>
<path d="M142.60,316.77 L443.35,316.77 L459.92,283.62 L218.38,283.62 L216.01,276.52 L282.32,153.37 L258.63,108.38 Z" fill="#000000" fill-rule="evenodd"/>
<text x="113.00" y="382.63" font-family="Arial Narrow, Helvetica Neue Condensed, Arial, sans-serif" font-size="54" font-stretch="condensed" font-weight="400" fill="#000000" textLength="333.90" lengthAdjust="spacingAndGlyphs">TOBOLIN</text>
</g>
</svg>